<mxfile host="app.diagrams.net" modified="2023-01-28T15:18:52.662Z" agent="5.0 (Windows)" etag="k8qpiooP1fLdkrp3B68D" version="20.8.13" type="github">
  <diagram id="C5RBs43oDa-KdzZeNtuy" name="Page-1">
    <mxGraphModel dx="1732" dy="695" grid="1" gridSize="10" guides="1" tooltips="1" connect="1" arrows="1" fold="1" page="1" pageScale="1" pageWidth="827" pageHeight="1169" math="0" shadow="0">
      <root>
        <mxCell id="WIyWlLk6GJQsqaUBKTNV-0" />
        <mxCell id="WIyWlLk6GJQsqaUBKTNV-1" parent="WIyWlLk6GJQsqaUBKTNV-0" />
        <mxCell id="WIyWlLk6GJQsqaUBKTNV-3" value="Begin" style="rounded=1;whiteSpace=wrap;html=1;fontSize=12;glass=0;strokeWidth=1;shadow=0;fillColor=#008a00;fontColor=#ffffff;strokeColor=#005700;" parent="WIyWlLk6GJQsqaUBKTNV-1" vertex="1">
          <mxGeometry x="154" y="80" width="120" height="40" as="geometry" />
        </mxCell>
        <mxCell id="pv0FcMhccSas01mbcOBb-0" value="Enter Number N" style="shape=parallelogram;perimeter=parallelogramPerimeter;whiteSpace=wrap;html=1;fixedSize=1;" vertex="1" parent="WIyWlLk6GJQsqaUBKTNV-1">
          <mxGeometry x="140" y="170" width="150" height="50" as="geometry" />
        </mxCell>
        <mxCell id="pv0FcMhccSas01mbcOBb-2" value="" style="endArrow=classic;html=1;rounded=0;" edge="1" parent="WIyWlLk6GJQsqaUBKTNV-1">
          <mxGeometry width="50" height="50" relative="1" as="geometry">
            <mxPoint x="211.5" y="120" as="sourcePoint" />
            <mxPoint x="211.5" y="170" as="targetPoint" />
          </mxGeometry>
        </mxCell>
        <mxCell id="pv0FcMhccSas01mbcOBb-3" value="&lt;div&gt;Initialize SUM = 0&lt;/div&gt;&lt;div&gt;C = N&lt;br&gt;&lt;/div&gt;" style="rounded=0;whiteSpace=wrap;html=1;fillColor=#0050ef;fontColor=#ffffff;strokeColor=#001DBC;" vertex="1" parent="WIyWlLk6GJQsqaUBKTNV-1">
          <mxGeometry x="155" y="280" width="120" height="60" as="geometry" />
        </mxCell>
        <mxCell id="pv0FcMhccSas01mbcOBb-4" value="" style="endArrow=classic;html=1;rounded=0;" edge="1" parent="WIyWlLk6GJQsqaUBKTNV-1">
          <mxGeometry width="50" height="50" relative="1" as="geometry">
            <mxPoint x="210" y="220" as="sourcePoint" />
            <mxPoint x="210" y="280" as="targetPoint" />
          </mxGeometry>
        </mxCell>
        <mxCell id="pv0FcMhccSas01mbcOBb-6" value="" style="endArrow=classic;html=1;rounded=0;" edge="1" parent="WIyWlLk6GJQsqaUBKTNV-1">
          <mxGeometry width="50" height="50" relative="1" as="geometry">
            <mxPoint x="210" y="340" as="sourcePoint" />
            <mxPoint x="210" y="400" as="targetPoint" />
          </mxGeometry>
        </mxCell>
        <mxCell id="pv0FcMhccSas01mbcOBb-7" value="&lt;div&gt;for i = 1;&lt;/div&gt;&lt;div&gt;I&amp;lt;=C; i++&lt;br&gt;&lt;/div&gt;" style="rhombus;whiteSpace=wrap;html=1;fillColor=#d5e8d4;strokeColor=#82b366;" vertex="1" parent="WIyWlLk6GJQsqaUBKTNV-1">
          <mxGeometry x="150" y="400" width="120" height="120" as="geometry" />
        </mxCell>
        <mxCell id="pv0FcMhccSas01mbcOBb-9" value="" style="endArrow=classic;html=1;rounded=0;" edge="1" parent="WIyWlLk6GJQsqaUBKTNV-1">
          <mxGeometry width="50" height="50" relative="1" as="geometry">
            <mxPoint x="270" y="459.5" as="sourcePoint" />
            <mxPoint x="350" y="459.5" as="targetPoint" />
          </mxGeometry>
        </mxCell>
        <mxCell id="pv0FcMhccSas01mbcOBb-10" value="SUM += i*i; " style="rounded=0;whiteSpace=wrap;html=1;" vertex="1" parent="WIyWlLk6GJQsqaUBKTNV-1">
          <mxGeometry x="354" y="430" width="120" height="60" as="geometry" />
        </mxCell>
        <mxCell id="pv0FcMhccSas01mbcOBb-12" value="" style="strokeWidth=2;html=1;shape=mxgraph.flowchart.annotation_2;align=left;labelPosition=right;pointerEvents=1;rotation=90;" vertex="1" parent="WIyWlLk6GJQsqaUBKTNV-1">
          <mxGeometry x="266" y="350" width="70" height="100" as="geometry" />
        </mxCell>
        <mxCell id="pv0FcMhccSas01mbcOBb-13" value="If the Condition for Loop remains true" style="text;html=1;align=center;verticalAlign=middle;resizable=0;points=[];autosize=1;strokeColor=none;fillColor=none;" vertex="1" parent="WIyWlLk6GJQsqaUBKTNV-1">
          <mxGeometry x="204" y="340" width="210" height="30" as="geometry" />
        </mxCell>
        <mxCell id="pv0FcMhccSas01mbcOBb-14" value="" style="endArrow=classic;html=1;rounded=0;" edge="1" parent="WIyWlLk6GJQsqaUBKTNV-1" target="pv0FcMhccSas01mbcOBb-15">
          <mxGeometry width="50" height="50" relative="1" as="geometry">
            <mxPoint x="211" y="521" as="sourcePoint" />
            <mxPoint x="211" y="571" as="targetPoint" />
          </mxGeometry>
        </mxCell>
        <mxCell id="pv0FcMhccSas01mbcOBb-15" value="Output the sum off squares, SUM" style="shape=parallelogram;perimeter=parallelogramPerimeter;whiteSpace=wrap;html=1;fixedSize=1;" vertex="1" parent="WIyWlLk6GJQsqaUBKTNV-1">
          <mxGeometry x="147" y="585" width="130" height="60" as="geometry" />
        </mxCell>
        <mxCell id="pv0FcMhccSas01mbcOBb-16" value="" style="endArrow=classic;html=1;rounded=0;" edge="1" parent="WIyWlLk6GJQsqaUBKTNV-1">
          <mxGeometry width="50" height="50" relative="1" as="geometry">
            <mxPoint x="211.5" y="645" as="sourcePoint" />
            <mxPoint x="211.5" y="705" as="targetPoint" />
          </mxGeometry>
        </mxCell>
        <mxCell id="pv0FcMhccSas01mbcOBb-17" value="End" style="rounded=1;whiteSpace=wrap;html=1;fillColor=#e51400;fontColor=#ffffff;strokeColor=#B20000;" vertex="1" parent="WIyWlLk6GJQsqaUBKTNV-1">
          <mxGeometry x="170" y="710" width="80" height="27" as="geometry" />
        </mxCell>
      </root>
    </mxGraphModel>
  </diagram>
</mxfile>
